<?xml version="1.0" encoding="UTF-8"?><svg width="204" height="14" viewBox="0 0 204 14" fill="none" xmlns="http://www.w3.org/2000/svg">
<g id="Brand Logo / American Eagle">
<g id="Vector">
<path fill-rule="evenodd" clip-rule="evenodd" d="M3.78603 9.76345H9.17555L10.7345 13.3743H12.9616C12.9616 13.3743 8.24017 2.89845 7.17118 0.267467H5.79039L0 13.3743H2.22707L3.78603 9.76345ZM6.50306 3.29965L8.41834 7.89118H4.58777L6.50306 3.29965Z" fill="#182C52"/>
<path fill-rule="evenodd" clip-rule="evenodd" d="M153.579 9.76345H158.969L160.527 13.3751H162.755C162.755 13.3751 158.033 2.89935 156.964 0.268359H155.583L149.793 13.3751H152.02L153.579 9.76345ZM156.298 3.29965L158.211 7.89118H154.383L156.298 3.29965Z" fill="#182C52"/>
<path d="M45.076 2.09605H39.8201V5.26197H44.9424V7.13335H39.8201V11.5029H45.076V13.3743H37.8603V0.267467H45.076V2.09605Z" fill="#182C52"/>
<path fill-rule="evenodd" clip-rule="evenodd" d="M60.131 13.3297L56.0777 7.75744C56.9686 7.57913 57.6812 7.17704 58.2157 6.46468C58.7502 5.79602 59.0175 4.9954 59.0175 4.05659C59.0175 2.89845 58.5721 1.91863 57.7258 1.20628C56.9694 0.537609 55.7214 0.223781 53.9843 0.223781H51.6681V13.3297H53.6279V7.98033H53.9843L57.7258 13.3297H60.131ZM54.2515 6.28548H53.6271V2.14152H54.3397C56.1659 2.14152 57.0567 2.81019 57.0567 4.14753C57.0567 5.57313 56.1223 6.28548 54.2515 6.28548Z" fill="#182C52"/>
<path d="M66.1441 0.267467H68.1039V13.3743H66.1441V0.267467Z" fill="#182C52"/>
<path d="M84.4061 0.981605V3.34334C83.248 2.4081 82.09 1.91685 80.8428 1.91685C79.5065 1.91685 78.3485 2.4081 77.4576 3.38614C76.5223 4.36863 76.0769 5.52677 76.0769 6.90957C76.0769 8.29059 76.5223 9.45229 77.4576 10.3866C78.393 11.321 79.5066 11.8131 80.8873 11.8131C81.6 11.8131 82.179 11.6812 82.669 11.4583C82.9362 11.3246 83.2044 11.1882 83.5153 11.0125C83.8271 10.8333 84.0943 10.5667 84.4507 10.2966V12.6592C83.3371 13.2842 82.1345 13.5963 80.8873 13.5963C79.0166 13.5963 77.414 12.9276 76.0777 11.6339C74.7415 10.2966 74.1179 8.73637 74.1179 6.8641C74.1179 5.21472 74.6524 3.69996 75.766 2.40631C77.1013 0.802402 78.883 0 81.021 0C82.179 0.000891558 83.2926 0.312937 84.4061 0.981605Z" fill="#182C52"/>
<path d="M144.715 2.09605H139.459V5.26197H144.537V7.13335H139.459V11.5029H144.715V13.3743H137.5V0.267467H144.715V2.09605Z" fill="#182C52"/>
<path d="M178.747 6.55384V6.99962C178.747 7.98033 178.613 8.87189 178.39 9.62882C178.168 10.343 177.767 10.9662 177.232 11.5894C176.028 12.9722 174.469 13.6408 172.6 13.6408C170.774 13.6408 169.215 12.9722 167.879 11.6348C166.587 10.2975 165.919 8.69179 165.919 6.86499C165.919 4.94814 166.587 3.34245 167.923 2.05058C169.259 0.713246 170.863 0.0445779 172.778 0.0445779C173.801 0.0445779 174.738 0.267467 175.629 0.667777C176.473 1.06987 177.32 1.78222 178.123 2.71925L176.696 4.05659C175.629 2.6301 174.337 1.91863 172.778 1.91863C171.397 1.91863 170.238 2.4081 169.304 3.34512C168.369 4.28037 167.879 5.44207 167.879 6.86588C167.879 8.33696 168.413 9.54056 169.438 10.4776C170.417 11.3691 171.487 11.7695 172.6 11.7695C173.58 11.7695 174.426 11.4574 175.228 10.7887C175.985 10.1201 176.431 9.31767 176.52 8.42611H173.266V6.55384H178.747Z" fill="#182C52"/>
<path d="M186.718 0.267467V11.5029H190.548V13.3743H184.758V0.267467H186.718Z" fill="#182C52"/>
<path d="M196.562 0.267467V13.3743H203.777V11.5029H198.521V7.13335H203.599V5.26197H198.521V2.09605H203.777V0.267467H196.562Z" fill="#182C52"/>
<path fill-rule="evenodd" clip-rule="evenodd" d="M93.3144 9.76345H98.7039L100.263 13.3743H102.49C102.49 13.3743 97.7686 2.89845 96.6996 0.267467H95.3188L89.5284 13.3743H91.7554L93.3144 9.76345ZM96.0314 3.29965L97.9467 7.89118H94.117L96.0314 3.29965Z" fill="#182C52"/>
<path d="M20.9345 5.43939L24.4533 13.3743H24.9878L28.5956 5.43939L29.8428 13.3743H31.8917L29.5755 0.179203H28.9965L24.7651 9.4514L20.6672 0.179203H20.0882L17.5048 13.3743H19.5537L20.9345 5.43939Z" fill="#182C52"/>
<path d="M119.549 13.3743V0.267467H117.59V9.36225L108.369 0.179203H107.612V13.3743H109.572V4.14753L118.792 13.3743H119.549Z" fill="#182C52"/>
</g>
</g>
</svg>
